<?xml version="1.0" standalone="no"?>
<!DOCTYPE svg PUBLIC "-//W3C//DTD SVG 20010904//EN"
 "http://www.w3.org/TR/2001/REC-SVG-20010904/DTD/svg10.dtd">
<svg
  version="1.0" xmlns="http://www.w3.org/2000/svg"
 viewBox="0 0 512.000000 512.000000"
 preserveAspectRatio="xMidYMid meet">

<g transform="translate(0.000000,512.000000) scale(0.100000,-0.100000)"
 stroke="none">
<path d="M686 5099 c-38 -5 -83 -17 -100 -27 -88 -50 -81 -180 11 -218 29 -13
50 -13 122 -5 47 6 154 11 238 11 147 0 152 1 181 25 82 69 56 185 -49 215
-41 12 -307 11 -403 -1z"/>
<path d="M1443 5099 c-51 -15 -83 -61 -83 -121 0 -44 4 -54 34 -84 l34 -34
251 0 c277 0 297 4 326 60 34 66 2 154 -65 177 -42 14 -448 16 -497 2z"/>
<path d="M2285 5103 c-81 -21 -121 -119 -76 -187 36 -54 45 -55 318 -56 l251
0 31 26 c77 64 49 187 -48 214 -36 10 -438 12 -476 3z"/>
<path d="M3116 5100 c-98 -31 -122 -149 -45 -215 l31 -25 250 0 c218 0 254 2
279 17 31 18 59 67 59 102 0 37 -26 86 -56 106 -26 18 -49 20 -259 22 -126 1
-243 -2 -259 -7z"/>
<path d="M3940 5098 c-67 -25 -99 -112 -65 -178 27 -53 48 -57 315 -63 269 -6
286 -3 315 53 36 70 8 147 -64 178 -49 20 -449 28 -501 10z"/>
<path d="M4699 4887 c-78 -52 -78 -123 0 -217 65 -77 94 -136 120 -234 11 -45
29 -88 42 -102 65 -69 182 -38 208 54 25 86 -59 299 -171 433 -76 92 -133 111
-199 66z"/>
<path d="M229 4865 c-28 -15 -89 -92 -132 -165 -65 -113 -112 -300 -88 -358
29 -69 106 -101 169 -68 44 23 61 53 78 136 19 92 45 149 100 227 59 82 69
112 54 157 -17 52 -62 86 -113 86 -23 -1 -54 -7 -68 -15z"/>
<path d="M4943 4115 c-18 -8 -42 -29 -53 -47 -18 -31 -20 -50 -20 -273 0 -220
2 -243 20 -272 22 -36 66 -63 105 -63 39 0 83 27 105 63 18 29 20 52 20 272 0
223 -1 242 -20 273 -20 33 -72 62 -107 62 -10 -1 -33 -7 -50 -15z"/>
<path d="M101 4077 c-13 -6 -34 -25 -45 -40 -20 -27 -21 -43 -24 -270 -2 -226
-1 -244 17 -274 28 -44 64 -65 110 -65 47 1 86 24 107 63 22 44 21 500 -2 539
-32 54 -107 76 -163 47z"/>
<path d="M4912 3256 l-37 -34 -3 -246 c-3 -207 -1 -251 13 -279 42 -89 178
-90 219 -2 15 31 17 67 14 281 l-3 246 -37 34 c-31 28 -45 34 -83 34 -38 0
-52 -6 -83 -34z"/>
<path d="M101 3242 c-66 -35 -71 -59 -71 -315 0 -175 3 -236 14 -262 33 -79
138 -98 200 -36 l31 31 3 253 c2 239 1 254 -18 285 -20 32 -71 62 -107 62 -10
0 -34 -8 -52 -18z"/>
<path d="M4943 2445 c-18 -8 -42 -29 -53 -47 -18 -31 -20 -50 -20 -273 0 -220
2 -243 20 -272 22 -36 66 -63 105 -63 39 0 83 27 105 63 18 29 20 52 20 272 0
223 -1 242 -20 273 -20 33 -72 62 -107 62 -10 -1 -33 -7 -50 -15z"/>
<path d="M85 2398 c-50 -39 -55 -67 -55 -313 0 -245 3 -263 56 -304 32 -25 92
-28 134 -6 56 29 60 50 60 317 0 223 -2 245 -19 272 -11 16 -30 35 -43 42 -37
21 -101 17 -133 -8z"/>
<path d="M4928 1602 c-53 -32 -58 -58 -58 -312 0 -255 5 -281 59 -313 16 -9
48 -17 70 -17 33 0 49 7 79 34 l37 34 3 246 c3 272 -1 296 -57 329 -37 22 -98
21 -133 -1z"/>
<path d="M100 1573 c-66 -34 -71 -57 -68 -330 3 -227 4 -243 24 -270 25 -34
90 -59 127 -49 15 3 42 19 60 35 l32 29 3 254 c2 188 -1 259 -10 277 -32 59
-109 84 -168 54z"/>
<path d="M4893 910 c-43 -26 -53 -48 -63 -143 -12 -109 -31 -168 -81 -251 -37
-61 -41 -74 -36 -115 9 -84 97 -132 174 -95 48 24 118 137 157 255 36 109 47
259 22 307 -31 60 -112 80 -173 42z"/>
<path d="M92 740 c-53 -24 -77 -73 -68 -134 16 -98 96 -242 193 -346 100 -109
179 -126 242 -54 26 29 31 43 31 84 0 48 -3 53 -61 112 -77 78 -123 147 -150
223 -28 81 -35 93 -67 108 -49 25 -76 27 -120 7z"/>
<path d="M4435 284 c-31 -9 -117 -17 -224 -21 -164 -6 -175 -7 -202 -30 -75
-63 -46 -186 50 -213 77 -21 344 -6 450 26 98 29 142 103 105 179 -31 66 -90
86 -179 59z"/>
<path d="M723 260 c-40 -9 -60 -25 -79 -61 -30 -60 -9 -135 49 -166 27 -15 65
-18 236 -21 253 -5 284 -1 328 43 29 29 33 39 33 85 0 46 -4 56 -34 86 l-34
34 -220 0 c-121 0 -226 2 -234 4 -7 2 -28 0 -45 -4z"/>
<path d="M1512 235 c-64 -53 -67 -131 -7 -184 45 -39 78 -43 325 -39 231 3
254 9 285 74 25 52 15 101 -30 142 l-35 32 -254 0 -254 0 -30 -25z"/>
<path d="M2334 226 c-30 -30 -34 -40 -34 -84 0 -62 32 -106 88 -122 52 -14
448 -12 492 3 67 23 99 111 66 176 -31 59 -41 61 -322 61 l-256 0 -34 -34z"/>
<path d="M3188 242 c-30 -18 -58 -67 -58 -102 0 -37 31 -90 64 -108 27 -15 64
-17 273 -17 228 0 243 1 270 21 15 11 36 37 47 58 16 32 17 44 7 76 -6 21 -25
50 -42 64 l-31 26 -251 0 c-220 0 -256 -3 -279 -18z"/>
</g>
</svg>
