<?xml version="1.0" standalone="no"?>
<!DOCTYPE svg PUBLIC "-//W3C//DTD SVG 20010904//EN"
 "http://www.w3.org/TR/2001/REC-SVG-20010904/DTD/svg10.dtd">
<svg version="1.0" xmlns="http://www.w3.org/2000/svg"
 width="512.000000pt" height="512.000000pt" viewBox="0 0 512.000000 512.000000"
 preserveAspectRatio="xMidYMid meet">

<g transform="translate(0.000000,512.000000) scale(0.100000,-0.100000)"
fill="#000000" stroke="none">
<path d="M2385 5114 c-16 -2 -73 -9 -125 -15 -254 -28 -537 -109 -772 -219
l-86 -40 85 -168 c48 -92 87 -168 89 -170 1 -2 26 9 55 23 76 39 262 109 349
133 169 45 297 66 483 78 l107 7 0 188 0 189 -77 -1 c-43 -1 -91 -4 -108 -5z"/>
<path d="M3025 5048 c-3 -18 -19 -103 -34 -188 -16 -85 -28 -155 -27 -156 0 0
58 -14 127 -31 265 -66 525 -186 748 -346 29 -21 57 -35 61 -30 25 28 212 277
216 288 6 16 -211 161 -356 238 -209 111 -404 181 -702 251 -24 6 -28 3 -33
-26z"/>
<path d="M664 4272 c-159 -180 -287 -369 -394 -587 -74 -150 -154 -357 -147
-378 2 -8 348 -119 353 -114 1 1 18 47 39 102 95 262 227 479 447 739 l33 38
-135 129 c-74 71 -137 128 -140 128 -3 0 -28 -26 -56 -57z"/>
<path d="M4555 3874 c-77 -52 -146 -99 -154 -103 -11 -7 -5 -24 33 -87 139
-232 240 -505 284 -769 16 -97 21 -110 38 -109 10 1 94 10 187 20 193 20 177
3 151 155 -39 231 -110 456 -210 667 -54 115 -173 323 -183 321 -3 0 -69 -43
-146 -95z"/>
<path d="M77 2463 l-67 -4 0 -52 c0 -142 55 -438 116 -630 54 -167 176 -445
202 -461 8 -5 302 152 325 173 4 4 -15 52 -42 107 -78 157 -144 344 -176 501
-23 109 -45 269 -45 326 l0 47 -122 -2 c-68 -1 -153 -3 -191 -5z"/>
<path d="M4695 2068 c-2 -7 -14 -49 -26 -93 -67 -250 -213 -542 -371 -744 -28
-34 -46 -67 -41 -71 35 -34 276 -230 282 -230 10 0 83 94 153 196 126 184 241
422 311 639 38 117 68 227 63 232 -2 3 -354 83 -363 83 -2 0 -5 -6 -8 -12z"/>
<path d="M1009 812 c-57 -64 -114 -128 -126 -143 l-23 -26 98 -78 c194 -156
421 -290 637 -378 116 -47 313 -113 319 -106 6 6 98 361 94 363 -2 2 -55 19
-118 40 -270 89 -498 217 -746 420 l-31 25 -104 -117z"/>
<path d="M3544 611 c-243 -125 -457 -188 -767 -226 l-48 -6 5 -52 c3 -29 11
-113 16 -187 6 -74 13 -136 14 -138 2 -2 59 4 126 13 301 39 554 118 843 263
92 46 167 88 165 92 -9 21 -194 319 -198 319 -3 -1 -73 -36 -156 -78z"/>
</g>
</svg>
