<?xml version="1.0" standalone="no"?>
<!DOCTYPE svg PUBLIC "-//W3C//DTD SVG 20010904//EN"
 "http://www.w3.org/TR/2001/REC-SVG-20010904/DTD/svg10.dtd">
<svg version="1.0" xmlns="http://www.w3.org/2000/svg"
     style="filter: invert(1)"
 width="512.000000pt" height="512.000000pt" viewBox="0 0 512.000000 512.000000"
 preserveAspectRatio="xMidYMid meet">

<g transform="translate(0.000000,512.000000) scale(0.100000,-0.100000)"
fill="#000000" stroke="none">
<path d="M2410 4660 l0 -150 150 0 150 0 0 150 0 150 -150 0 -150 0 0 -150z"/>
<path d="M0 2569 c0 -1294 3 -1779 11 -1779 10 0 713 226 1712 551 l337 110 0
1057 0 1057 -823 312 c-452 172 -915 349 -1029 392 l-208 79 0 -1779z m1043
1061 l717 -273 -2 -845 -3 -845 -720 -233 c-396 -128 -723 -234 -727 -234 -5
0 -8 610 -8 1356 0 1081 3 1355 13 1352 6 -3 335 -128 730 -278z"/>
<path d="M4088 3955 l-1027 -390 -1 -1057 0 -1057 183 -59 c100 -33 561 -182
1025 -332 463 -150 844 -271 847 -268 3 3 4 803 3 1779 l-3 1775 -1027 -391z
m732 -1400 c0 -745 -3 -1355 -7 -1355 -5 0 -332 106 -728 235 l-720 233 -3
844 -2 844 722 276 c398 152 726 277 731 277 4 1 7 -609 7 -1354z"/>
<path d="M2410 4060 l0 -150 150 0 150 0 0 150 0 150 -150 0 -150 0 0 -150z"/>
<path d="M2410 3460 l0 -150 150 0 150 0 0 150 0 150 -150 0 -150 0 0 -150z"/>
<path d="M2410 2860 l0 -150 150 0 150 0 0 150 0 150 -150 0 -150 0 0 -150z"/>
<path d="M2410 2260 l0 -150 150 0 150 0 0 150 0 150 -150 0 -150 0 0 -150z"/>
<path d="M2410 1660 l0 -150 150 0 150 0 0 150 0 150 -150 0 -150 0 0 -150z"/>
<path d="M2410 1060 l0 -150 150 0 150 0 0 150 0 150 -150 0 -150 0 0 -150z"/>
<path d="M2410 460 l0 -150 150 0 150 0 0 150 0 150 -150 0 -150 0 0 -150z"/>
</g>
</svg>
